<?xml version="1.0" encoding="utf-8"?>
<!-- Generator: Adobe Illustrator 24.1.1, SVG Export Plug-In . SVG Version: 6.00 Build 0)  -->
<svg version="1.1" id="Layer_1" xmlns="http://www.w3.org/2000/svg" xmlns:xlink="http://www.w3.org/1999/xlink" x="0px" y="0px"
	 viewBox="0 0 615.66 144.17" style="enable-background:new 0 0 615.66 144.17;" xml:space="preserve">
<style type="text/css">
	.st0{opacity:0.77;clip-path:url(#SVGID_1_);fill:#DB4E3B;}
	.st1{clip-path:url(#SVGID_1_);fill:#E2A223;}
	.st2{clip-path:url(#SVGID_1_);fill:#43AFA2;}
	.st3{fill:#4072E2;}
</style>
<g>
	<defs>
		<ellipse id="SVGID_3_" cx="67.83" cy="68.44" rx="55.79" ry="54.39"/>
	</defs>
	<clipPath id="SVGID_1_">
		<use xlink:href="#SVGID_3_"  style="overflow:visible;"/>
	</clipPath>
	<path class="st0" d="M-6.08,91.79c44.24-23.67,88.48-47.33,132.72-71c-5.69-4.88-16.73-13.03-32.93-17.21
		C71.36-2.17,52.79,3.13,45.53,5.62C39.19,7.94,18.41,16.44,4.59,38.76C-9.98,62.3-7.08,85.5-6.08,91.79z"/>
	<path class="st1" d="M0.36,103.26l59.88-32.01l38.95,69.23c-5.97,2.12-29.08,9.53-55.82-0.24C15.67,130.12,3.22,108.56,0.36,103.26
		z"/>
	<path class="st2" d="M71.83,64.38l56.13-30.01c3.31,5.61,13.97,25.24,9.78,51.17c-4.49,27.78-22.93,43.8-27.75,47.74
		C97.26,110.32,84.54,87.35,71.83,64.38z"/>
</g>
<g>
	<g>
		<path class="st3" d="M149.06,76.7l-12.42,0.01l-0.01-8.34l35.03-0.02l0.01,8.34l-12.42,0.01l0.02,35.64l-10.2,0.01L149.06,76.7z"
			/>
		<path class="st3" d="M178.71,68.34l10.2-0.01l0.03,43.98l-10.2,0.01L178.71,68.34z"/>
		<path class="st3" d="M197.43,90.57c-0.01-14.59,9.88-23.06,21.28-23.07c5.83,0,10.53,2.67,13.57,5.7l-5.37,6.38
			c-2.26-2.05-4.7-3.5-7.96-3.5c-6.19,0-11.07,5.32-11.06,14.14c0.01,9.04,4.32,14.29,10.92,14.29c3.7,0,6.62-1.78,8.82-4.12
			l5.38,6.24c-3.74,4.25-8.73,6.46-14.56,6.46C206.99,113.11,197.44,105.39,197.43,90.57z"/>
		<path class="st3" d="M239.83,68.31l10.2-0.01l0.01,17.97h0.25l13.44-17.98l11.21-0.01L261.3,85.85l16.17,26.42l-11.18,0.01
			L255.31,93.7l-5.26,6.8l0.01,11.79l-10.2,0.01L239.83,68.31z"/>
		<path class="st3" d="M282.33,68.28l28.27-0.02l0.01,8.34l-18.07,0.01l0,8.83l15.38-0.01l0.01,8.34l-15.38,0.01l0.01,10.13
			l18.76-0.01l0.01,8.34l-28.96,0.02L282.33,68.28z"/>
		<path class="st3" d="M329.09,76.59l-12.42,0.01l0-8.34l35.03-0.02l0,8.34l-12.42,0.01l0.02,35.64l-10.2,0.01L329.09,76.59z"/>
		<path class="st3" d="M372.59,68.23l11.13-0.01l7.33,19.54c0.9,2.59,1.7,5.41,2.6,8.12h0.28c0.9-2.71,1.67-5.53,2.57-8.12
			l7.08-19.54l11.13-0.01l0.03,43.98l-9.29,0l-0.01-16.14c0-4.29,0.82-10.69,1.29-14.94h-0.28l-3.7,10.41l-6.37,16.85l-5.66,0
			l-6.4-16.84l-3.6-10.41h-0.28c0.48,4.25,1.31,10.65,1.31,14.94l0.01,16.14l-9.15,0.01L372.59,68.23z"/>
		<path class="st3" d="M433.73,68.2l12.2-0.01l14.19,43.97l-10.79,0.01l-5.92-22.27c-1.26-4.4-2.46-9.6-3.67-14.18h-0.28
			c-1.09,4.64-2.29,9.79-3.54,14.19l-5.91,22.28l-10.43,0.01L433.73,68.2z M428.92,93.97l21.71-0.01l0,7.73l-21.71,0.01
			L428.92,93.97z"/>
		<path class="st3" d="M462.1,106.61l5.85-6.83c3.21,2.72,7.37,4.59,11.08,4.59c4.26,0,6.34-1.64,6.34-4.25
			c0-2.77-2.57-3.66-6.51-5.23l-5.86-2.43c-4.67-1.85-9.11-5.59-9.11-11.98c0-7.29,6.67-13.11,16.06-13.12
			c5.2,0,10.63,1.99,14.52,5.76l-5.14,6.27c-2.97-2.22-5.8-3.44-9.37-3.44c-3.52,0-5.75,1.43-5.75,3.95c0,2.7,2.95,3.68,6.89,5.2
			l5.75,2.27c5.51,2.17,8.95,5.74,8.96,11.96c0,7.3-6.24,13.63-16.99,13.64C472.95,112.96,466.71,110.8,462.1,106.61z"/>
		<path class="st3" d="M512.31,76.49L499.9,76.5l0-8.34l35.03-0.02l0,8.34l-12.42,0.01l0.02,35.64l-10.2,0.01L512.31,76.49z"/>
		<path class="st3" d="M541.97,68.13l28.27-0.02l0,8.34l-18.07,0.01l0,8.83l15.38-0.01l0,8.34l-15.38,0.01l0.01,10.13l18.76-0.01
			l0,8.34l-28.96,0.02L541.97,68.13z"/>
		<path class="st3" d="M579.9,68.11l16.25-0.01c9.57-0.01,17.41,3.23,17.42,13.69c0.01,10.11-7.83,14.46-17.4,14.47l-6.05,0
			l0.01,15.83l-10.2,0.01L579.9,68.11z M595.33,88.36c5.36,0,8.25-2.24,8.24-6.57c0-4.35-2.89-5.8-8.25-5.8l-5.22,0l0.01,12.36
			L595.33,88.36z M594.29,93.63l7.05-6.37l14.41,24.8l-11.41,0.01L594.29,93.63z"/>
	</g>
</g>
</svg>
